<?xml version="1.0" standalone="no"?>
<!DOCTYPE svg PUBLIC "-//W3C//DTD SVG 20010904//EN"
 "http://www.w3.org/TR/2001/REC-SVG-20010904/DTD/svg10.dtd">
<svg version="1.0" xmlns="http://www.w3.org/2000/svg"
 width="500.000000pt" height="500.000000pt" viewBox="0 0 500.000000 500.000000"
 preserveAspectRatio="xMidYMid meet">

<g transform="translate(0.000000,500.000000) scale(0.100000,-0.100000)"
fill="#000000" stroke="none">
<path d="M2461 4788 c-40 -134 -152 -277 -254 -323 -45 -21 -67 -25 -143 -23
-142 3 -236 -42 -300 -143 -24 -38 -26 -39 -84 -39 l-60 0 0 -120 0 -119 -27
-15 c-42 -22 -98 -85 -126 -141 -83 -169 -104 -378 -88 -880 2 -96 0 -121 -24
-200 -37 -125 -88 -216 -165 -294 l-65 -66 65 -66 c77 -78 128 -169 165 -294
24 -79 26 -104 24 -200 -16 -502 5 -711 88 -880 28 -56 84 -119 126 -141 l27
-15 0 -119 0 -120 60 0 c58 0 60 -1 84 -39 65 -102 158 -146 305 -143 84 2 98
-1 143 -25 96 -52 188 -177 230 -310 7 -24 15 -43 18 -43 3 0 16 31 29 70 44
129 128 233 230 285 44 22 61 25 143 23 146 -3 239 41 304 143 24 38 26 39 84
39 l60 0 0 120 0 119 28 15 c92 49 162 182 199 380 16 91 23 370 14 641 -2 96
0 121 24 200 37 125 88 216 165 294 l65 66 -65 66 c-77 78 -128 169 -165 294
-24 79 -26 104 -24 200 16 502 -5 711 -88 880 -28 56 -84 119 -125 141 l-28
15 0 119 0 120 -60 0 c-58 0 -60 1 -84 39 -64 101 -158 146 -301 143 -73 -2
-97 2 -133 19 -91 44 -180 160 -227 296 -13 35 -25 66 -27 69 -3 2 -10 -15
-17 -38z"/>
</g>
</svg>
