<svg version="1.2" xmlns="http://www.w3.org/2000/svg" viewBox="0 0 500 500" width="500" height="500"><style>.a{fill:#43280a}</style><path class="a" d="m246.1 21.2c-4 13.4-15.2 27.7-25.4 32.3-4.5 2.1-6.7 2.5-14.3 2.3-14.2-0.3-23.6 4.2-30 14.3-2.4 3.8-2.6 3.9-8.4 3.9h-6v12 11.9l-2.7 1.5c-4.2 2.2-9.8 8.5-12.6 14.1-8.3 16.9-10.4 37.8-8.8 88 0.2 9.6 0 12.1-2.4 20-3.7 12.5-8.8 21.6-16.5 29.4l-6.5 6.6 6.5 6.6c7.7 7.8 12.8 16.9 16.5 29.4 2.4 7.9 2.6 10.4 2.4 20-1.6 50.2 0.5 71.1 8.8 88 2.8 5.6 8.4 11.9 12.6 14.1l2.7 1.5v11.9 12h6c5.8 0 6 0.1 8.4 3.9 6.5 10.2 15.8 14.6 30.5 14.3 8.4-0.2 9.8 0.1 14.3 2.5 9.6 5.2 18.8 17.7 23 31 0.7 2.4 1.5 4.3 1.8 4.3 0.3 0 1.6-3.1 2.9-7 4.4-12.9 12.8-23.3 23-28.5 4.4-2.2 6.1-2.5 14.3-2.3 14.6 0.3 23.9-4.1 30.4-14.3 2.4-3.8 2.6-3.9 8.4-3.9h6v-12-11.9l2.8-1.5c9.2-4.9 16.2-18.2 19.9-38 1.6-9.1 2.3-37 1.4-64.1-0.2-9.6 0-12.1 2.4-20 3.7-12.5 8.8-21.6 16.5-29.4l6.5-6.6-6.5-6.6c-7.7-7.8-12.8-16.9-16.5-29.4-2.4-7.9-2.6-10.4-2.4-20 1.6-50.2-0.5-71.1-8.8-88-2.8-5.6-8.4-11.9-12.5-14.1l-2.8-1.5v-11.9-12h-6c-5.8 0-6-0.1-8.4-3.9-6.4-10.1-15.8-14.6-30.1-14.3-7.3 0.2-9.7-0.2-13.3-1.9-9.1-4.4-18-16-22.7-29.6-1.3-3.5-2.5-6.6-2.7-6.9-0.3-0.2-1 1.5-1.7 3.8z"/></svg>